<?xml version="1.0" encoding="utf-8"?>
<!-- Generator: Adobe Illustrator 27.5.0, SVG Export Plug-In . SVG Version: 6.00 Build 0)  -->
<svg version="1.1" xmlns="http://www.w3.org/2000/svg" xmlns:xlink="http://www.w3.org/1999/xlink" x="0px" y="0px"
	 viewBox="0 0 750 500" style="enable-background:new 0 0 750 500;" xml:space="preserve">
<g id="BACKGROUND">
	<rect style="fill:#FFFFFF;" width="750" height="500"/>
</g>
<g id="OBJECTS">
	<path style="fill:#E5E3FC;" d="M91.464,301.164l65.752,37.962c2.734,1.578,6.262,0.633,7.84-2.101l1.625-2.814
		c1.578-2.734,0.633-6.262-2.101-7.84l-65.752-37.962c-2.734-1.578-6.262-0.633-7.84,2.101l-1.625,2.814
		C87.785,296.057,88.731,299.585,91.464,301.164z"/>
	<path style="opacity:0.73;fill:#E5E3FC;" d="M125.726,229.279l439.018,211.293c43.846,21.103,96.986,2.494,118.089-41.352v0
		c21.103-43.846,2.494-96.986-41.352-118.089L202.463,69.838c-43.846-21.103-96.986-2.494-118.089,41.352v0
		C63.272,155.036,81.88,208.176,125.726,229.279z"/>
	<path style="fill:#C9C7FF;" d="M577.453,250.118c-4.863,9.368-1.177,21.012,8.191,25.875l92.089,47.805
		c5.015,2.604,10.923,2.864,16.148,0.713l0,0c15.101-6.217,16.03-27.254,1.536-34.778l-92.089-47.805
		C593.959,237.064,582.316,240.75,577.453,250.118z"/>
	<g>
		<g>
			<g>
				<path style="fill:#7F6BF4;" d="M166.227,230.298c8.115-3.995,13.395-12.827,13.536-21.791c0.073-4.603-0.946-9.717,1.816-13.423
					c2.884-3.869,8.618-4.369,12.272-7.539c4.046-3.51,4.669-9.85,2.471-14.708c-2.168-4.793-6.747-9.842-4.24-14.472
					c0.939-1.735,2.698-2.848,4.171-4.171c4.767-4.28,6.608-11.545,4.224-17.46c-2.384-5.915-8.95-9.966-15.349-9.256
					c-6.398,0.71-11.963,6.276-12.385,12.63c-0.262,3.951,1.187,8.279-0.876,11.673c-2.486,4.09-8.365,4.208-12.544,6.593
					c-4.404,2.513-6.816,8.024-5.656,12.919c2.877,12.136-0.623,10.653-9.303,17.326c-5.294,4.07-11.077,11.445-11.552,18.287
					C131.617,224.154,150.191,238.193,166.227,230.298z"/>
				
					<path style="fill:none;stroke:#211D1D;stroke-width:1.1417;stroke-linecap:round;stroke-linejoin:round;stroke-miterlimit:10;" d="
					M140.733,253.517c0-2.495,40.509-98.71,40.509-98.71"/>
				
					<line style="fill:none;stroke:#211D1D;stroke-width:1.1417;stroke-linecap:round;stroke-linejoin:round;stroke-miterlimit:10;" x1="164.055" y1="157.64" x2="166.92" y2="188.8"/>
				
					<path style="fill:none;stroke:#211D1D;stroke-width:1.1417;stroke-linecap:round;stroke-linejoin:round;stroke-miterlimit:10;" d="
					M157.509,211.607c1.719-1.7,22.586-12.61,22.586-12.61"/>
				<path style="fill:#7F6BF4;" d="M94.67,243.314c-8.971-1.285-16.779-8.041-19.748-16.512c-1.525-4.35-2.174-9.522-5.97-12.187
					c-3.963-2.783-9.568-1.485-14.041-3.366c-4.953-2.083-7.549-7.912-6.998-13.206c0.544-5.223,3.296-11.435-0.549-15.058
					c-1.44-1.357-3.464-1.87-5.281-2.671c-5.881-2.591-9.927-8.922-9.533-15.278c0.394-6.355,5.35-12.234,11.652-13.539
					c6.302-1.304,13.348,2.261,15.757,8.166c1.498,3.671,1.491,8.231,4.523,10.816c3.655,3.116,9.276,1.41,14,2.383
					c4.977,1.025,9.012,5.514,9.458,10.522c1.105,12.417,3.96,9.926,14.315,13.58c6.316,2.229,14.141,7.445,16.755,13.797
					C125.602,226.775,112.399,245.854,94.67,243.314z"/>
				
					<path style="fill:none;stroke:#211D1D;stroke-width:1.1417;stroke-linecap:round;stroke-linejoin:round;stroke-miterlimit:10;" d="
					M126.228,257.485c-0.789-2.37-69.691-81.231-69.691-81.231"/>
				
					<line style="fill:none;stroke:#211D1D;stroke-width:1.1417;stroke-linecap:round;stroke-linejoin:round;stroke-miterlimit:10;" x1="73.758" y1="173.629" x2="80.89" y2="204.112"/>
				
					<path style="fill:none;stroke:#211D1D;stroke-width:1.0919;stroke-linecap:round;stroke-linejoin:round;stroke-miterlimit:10;" d="
					M96.434,222.163c-2.075-1.036-19.171-2.346-19.171-2.346"/>
				<path style="fill:#C8C0FC;" d="M145.174,202.11c6.361-8.868,6.89-21.301,1.849-30.964c-2.588-4.962-6.64-9.852-5.833-15.378
					c0.842-5.77,6.682-9.553,8.752-15.012c2.292-6.044-0.715-13.174-5.878-17.123c-5.094-3.896-12.913-6.7-12.916-13.069
					c-0.001-2.387,1.235-4.573,2.044-6.822c2.616-7.276,0.377-16.086-5.598-21.058c-5.975-4.972-15.341-5.584-21.77-1.2
					c-6.429,4.384-9.154,13.487-5.924,20.518c2.008,4.372,6.065,8.178,5.825,12.974c-0.289,5.781-6.505,9.237-9.591,14.155
					c-3.252,5.181-2.639,12.44,1.437,17.016c10.105,11.344,5.504,11.741,0.09,23.792c-3.302,7.35-5.213,18.51-1.757,26.094
					C104.615,215.149,132.603,219.635,145.174,202.11z"/>
				
					<line style="fill:none;stroke:#211D1D;stroke-width:1.2578;stroke-linecap:round;stroke-linejoin:round;stroke-miterlimit:10;" x1="116.813" y1="108.899" x2="130.067" y2="262.451"/>
				
					<line style="fill:none;stroke:#211D1D;stroke-width:1.2578;stroke-linecap:round;stroke-linejoin:round;stroke-miterlimit:10;" x1="108.625" y1="173.815" x2="123.773" y2="192.541"/>
				
					<line style="fill:none;stroke:#211D1D;stroke-width:1.2578;stroke-linecap:round;stroke-linejoin:round;stroke-miterlimit:10;" x1="130.067" y1="123.255" x2="121.231" y2="153.841"/>
				<polygon style="fill:#2D1A14;" points="106.381,253.618 121.518,333.457 148.188,333.457 161.883,255.043 				"/>
				
					<line style="fill:none;stroke:#FFF8F3;stroke-width:0.9524;stroke-linecap:round;stroke-linejoin:round;stroke-miterlimit:10;" x1="109.802" y1="266.786" x2="159.661" y2="268.411"/>
			</g>
		</g>
		
			<polyline style="fill:none;stroke:#211D1D;stroke-width:1.0804;stroke-linecap:round;stroke-linejoin:round;stroke-miterlimit:10;" points="
			126.319,328.859 110.409,454.658 141.616,327.661 		"/>
		
			<polygon style="fill:none;stroke:#211D1D;stroke-width:1.0804;stroke-linecap:round;stroke-linejoin:round;stroke-miterlimit:10;" points="
			123.871,312.685 159.361,453.294 146.511,312.086 		"/>
	</g>
	<g>
		<g>
			<g>
				<path style="fill:#7F6BF4;" d="M564.237,230.578c-8.115-3.995-13.395-12.827-13.536-21.791
					c-0.073-4.603,0.946-9.717-1.816-13.423c-2.885-3.869-8.618-4.369-12.272-7.539c-4.046-3.51-4.669-9.85-2.471-14.708
					c2.168-4.793,6.746-9.842,4.24-14.472c-0.939-1.735-2.698-2.848-4.172-4.171c-4.767-4.28-6.608-11.545-4.224-17.46
					c2.384-5.915,8.95-9.966,15.349-9.256c6.398,0.71,11.963,6.276,12.385,12.63c0.262,3.951-1.187,8.279,0.875,11.673
					c2.486,4.09,8.365,4.208,12.544,6.593c4.404,2.513,6.816,8.024,5.656,12.919c-2.877,12.136,0.623,10.653,9.303,17.326
					c5.294,4.07,11.077,11.445,11.552,18.287C598.848,224.435,580.274,238.473,564.237,230.578z"/>
				
					<path style="fill:none;stroke:#211D1D;stroke-width:1.1417;stroke-linecap:round;stroke-linejoin:round;stroke-miterlimit:10;" d="
					M589.732,259.79c0-2.495-40.509-104.702-40.509-104.702"/>
				
					<line style="fill:none;stroke:#211D1D;stroke-width:1.1417;stroke-linecap:round;stroke-linejoin:round;stroke-miterlimit:10;" x1="566.409" y1="157.921" x2="564.977" y2="195.029"/>
				
					<path style="fill:none;stroke:#211D1D;stroke-width:1.1417;stroke-linecap:round;stroke-linejoin:round;stroke-miterlimit:10;" d="
					M572.759,214.895c-1.719-1.7-22.39-15.617-22.39-15.617"/>
				<path style="fill:#7F6BF4;" d="M635.795,243.595c8.971-1.285,16.779-8.041,19.748-16.511c1.525-4.35,2.174-9.522,5.969-12.188
					c3.963-2.783,9.568-1.485,14.041-3.366c4.953-2.083,7.549-7.912,6.998-13.206c-0.544-5.223-3.296-11.435,0.549-15.057
					c1.44-1.357,3.464-1.87,5.281-2.671c5.881-2.591,9.927-8.922,9.533-15.278c-0.394-6.355-5.35-12.234-11.652-13.539
					c-6.302-1.304-13.348,2.262-15.758,8.166c-1.498,3.671-1.491,8.231-4.523,10.816c-3.655,3.116-9.276,1.41-14,2.383
					c-4.977,1.025-9.012,5.514-9.458,10.522c-1.105,12.417-3.96,9.926-14.315,13.579c-6.316,2.229-14.141,7.445-16.755,13.797
					C604.863,227.055,618.066,246.135,635.795,243.595z"/>
				
					<path style="fill:none;stroke:#211D1D;stroke-width:1.1417;stroke-linecap:round;stroke-linejoin:round;stroke-miterlimit:10;" d="
					M604.236,257.766c0.789-2.37,69.691-81.231,69.691-81.231"/>
				
					<line style="fill:none;stroke:#211D1D;stroke-width:1.1417;stroke-linecap:round;stroke-linejoin:round;stroke-miterlimit:10;" x1="656.707" y1="173.91" x2="649.575" y2="204.393"/>
				
					<line style="fill:none;stroke:#211D1D;stroke-width:1.0919;stroke-linecap:round;stroke-linejoin:round;stroke-miterlimit:10;" x1="634.914" y1="221.422" x2="653.202" y2="220.098"/>
				<path style="fill:#C8C0FC;" d="M585.291,202.391c-6.361-8.868-6.89-21.301-1.849-30.964c2.589-4.962,6.64-9.852,5.833-15.378
					c-0.842-5.771-6.682-9.553-8.752-15.012c-2.292-6.044,0.715-13.175,5.878-17.123c5.094-3.896,12.913-6.7,12.916-13.069
					c0.001-2.387-1.235-4.573-2.044-6.822c-2.616-7.276-0.377-16.085,5.598-21.058c5.975-4.972,15.341-5.584,21.77-1.2
					c6.429,4.384,9.154,13.487,5.924,20.518c-2.008,4.372-6.065,8.178-5.825,12.974c0.289,5.781,6.505,9.237,9.591,14.155
					c3.252,5.181,2.639,12.44-1.437,17.016c-10.105,11.344-5.504,11.741-0.09,23.792c3.302,7.35,5.213,18.51,1.757,26.094
					C625.85,215.43,597.862,219.916,585.291,202.391z"/>
				
					<line style="fill:none;stroke:#211D1D;stroke-width:1.2578;stroke-linecap:round;stroke-linejoin:round;stroke-miterlimit:10;" x1="613.652" y1="109.18" x2="600.398" y2="262.732"/>
				
					<line style="fill:none;stroke:#211D1D;stroke-width:1.2578;stroke-linecap:round;stroke-linejoin:round;stroke-miterlimit:10;" x1="621.84" y1="174.096" x2="606.692" y2="192.822"/>
				
					<line style="fill:none;stroke:#211D1D;stroke-width:1.2578;stroke-linecap:round;stroke-linejoin:round;stroke-miterlimit:10;" x1="600.398" y1="123.536" x2="609.234" y2="159.553"/>
				<polygon style="fill:#2D1A14;" points="624.084,253.898 608.947,333.738 582.277,333.738 568.582,255.324 				"/>
				
					<line style="fill:none;stroke:#FFF8F3;stroke-width:0.9524;stroke-linecap:round;stroke-linejoin:round;stroke-miterlimit:10;" x1="620.663" y1="267.067" x2="570.803" y2="268.692"/>
			</g>
		</g>
		
			<polyline style="fill:none;stroke:#211D1D;stroke-width:1.0919;stroke-linecap:round;stroke-linejoin:round;stroke-miterlimit:10;" points="
			604.146,329.5 620.056,455.143 588.849,328.276 		"/>
		
			<polygon style="fill:none;stroke:#211D1D;stroke-width:1.0919;stroke-linecap:round;stroke-linejoin:round;stroke-miterlimit:10;" points="
			606.594,312.979 571.104,454.939 583.954,312.367 		"/>
	</g>
	<path style="fill:#C9C7FF;" d="M296.064,66.529c-5.042,9.273-1.58,20.985,7.693,26.027l91.155,49.561
		c4.964,2.699,10.866,3.073,16.132,1.022l0,0c15.217-5.927,16.549-26.942,2.202-34.742L322.09,58.836
		C312.817,53.794,301.105,57.256,296.064,66.529z"/>
	<path style="fill:#E5E3FC;" d="M194.086,50.64l67.814,34.143c2.82,1.42,6.288,0.274,7.708-2.545l1.461-2.903
		c1.42-2.82,0.274-6.288-2.545-7.707l-67.814-34.143c-2.82-1.42-6.288-0.274-7.707,2.545l-1.461,2.903
		C190.121,45.752,191.266,49.22,194.086,50.64z"/>
	<path style="fill:#C9C7FF;" d="M268.66,131.974l67.814,34.143c2.819,1.42,6.288,0.274,7.707-2.545l1.461-2.903
		c1.42-2.819,0.274-6.288-2.545-7.707l-67.814-34.143c-2.819-1.42-6.288-0.274-7.707,2.545l-1.461,2.902
		C264.695,127.086,265.841,130.554,268.66,131.974z"/>
	<path style="fill:#C9C7FF;" d="M644.884,355.775l67.814,34.143c2.82,1.42,6.288,0.274,7.708-2.545l1.461-2.903
		c1.42-2.82,0.274-6.288-2.545-7.707l-67.814-34.143c-2.82-1.419-6.288-0.274-7.707,2.545l-1.461,2.902
		C640.919,350.887,642.064,354.355,644.884,355.775z"/>
	<path style="opacity:0.73;fill:#E5E3FC;" d="M174.755,377.856l107.287,75.392h75.384L199.675,342.394
		c-9.752-6.853-23.338-4.481-30.191,5.271C162.631,357.417,165.003,371.003,174.755,377.856z"/>
	<path style="fill:#E5E3FC;" d="M84.424,268.411c0,1.952-1.582,3.534-3.534,3.534c-1.952,0-3.534-1.582-3.534-3.534
		c0-1.952,1.582-3.534,3.534-3.534C82.842,264.877,84.424,266.46,84.424,268.411z"/>
	<g>
		
			<polyline style="fill:none;stroke:#211D1D;stroke-width:1.1022;stroke-linecap:round;stroke-linejoin:round;stroke-miterlimit:10;" points="
			321.601,454.02 305.258,356.936 244.368,356.627 225.959,455.201 		"/>
		<path style="fill:#B82B12;" d="M249.238,351.68h75.135c6.224,0,11.315-5.867,11.315-13.037l0,0
			c0-7.171-5.092-13.037-11.315-13.037h-75.135c-6.223,0-11.315,5.867-11.315,13.037l0,0
			C237.922,345.814,243.014,351.68,249.238,351.68z"/>
		<path style="fill:#B82B12;" d="M256.404,352.148c5.37-22.76-7.411-47.028-26.467-60.583s-43.146-18.056-66.516-18.929
			l24.617,79.465L256.404,352.148z"/>
		
			<polyline style="fill:none;stroke:#211D1D;stroke-width:1.0919;stroke-linecap:round;stroke-linejoin:round;stroke-miterlimit:10;" points="
			267.044,454.491 250.673,357.712 189.783,357.424 171.401,455.365 		"/>
		<path style="fill:#2D1A14;" d="M299.872,357.999H181.943c-1.533,0-2.787-1.254-2.787-2.787v-0.789
			c0-1.533,1.254-2.787,2.787-2.787h117.929c1.533,0,2.787,1.254,2.787,2.787v0.789
			C302.659,356.745,301.405,357.999,299.872,357.999z"/>
	</g>
	<g>
		<g>
			<g>
				<g>
					<g>
						<path style="fill:#FF8772;" d="M233.543,150.21c0.566,3.05,0.893,6.145,0.979,9.247c0.128,4.643-0.459,9.708-3.641,13.037
							c1.973,2.762,4.965,5.03,8.215,5.874c3.25,0.844,6.786,0.496,9.817-0.966c0.827-0.399,1.615-0.876,2.401-1.353
							c0.965-0.585,1.929-1.169,2.894-1.754c-4.181-7.331-7.754-15.443-6.635-23.843c-2.087-0.396-5.042-1.291-7.129-1.687
							c-0.905-0.172-1.82-0.344-2.74-0.304C236.244,148.525,234.984,150.461,233.543,150.21z"/>
						<path style="fill:#2D1A14;" d="M249.74,165.126c-1.818-4.718-2.837-9.643-2.166-14.673c-2.087-0.396-5.042-1.291-7.129-1.687
							c-0.612-0.116-1.229-0.227-1.849-0.278C238.258,155.937,243.021,163.02,249.74,165.126z"/>
						<path style="fill:#7F6BF4;" d="M254.203,228.75l-16.687-0.954c-13.239-0.757-24.68,9.65-25.424,23.128
							c-0.63,11.411-1.489,23.382-2.245,22.666c0.658,10.403-1.648,31.312,2.668,41.022c2.857,8.476,10.232,9.357,19.007,10.075
							c0.215,0.018,0.431,0.032,0.645,0.045l16.687,0.954c12.688,0.726,24.246-18.167,25.839-31.54
							c-0.055-0.558,0.329-5.365,0.549-8.998c0,0,1.708-30.033,1.681-30.516C277.666,241.154,267.443,229.507,254.203,228.75z"/>
						<path style="fill:#F4D0B8;" d="M283.936,209.396c-0.287-4.172-0.832-8.307-1.376-12.455c-0.499-3.808-1.094-7.69-2.393-11.36
							c-0.594-1.68-1.345-3.427-2.497-4.841c-1.012-1.241-2.296-2.168-3.74-2.971c-2.108-1.177-4.39-2.019-6.617-2.965
							c-1.919-0.298-3.972-0.407-6.207-0.489c-0.433-0.015-0.874-0.03-1.322-0.046c-0.255-0.008-0.514-0.017-0.775-0.027
							c-0.09-0.002-0.18-0.005-0.272-0.008c-0.215-0.007-0.432-0.015-0.65-0.022c-0.869-0.032-1.764-0.07-2.689-0.119
							c-1.184-0.064-2.368-0.139-3.553-0.22c-7.435-0.51-14.847-1.294-22.303-1.501c-0.737-0.02-1.479-0.037-2.229-0.047
							c-2.046-0.028-4.122-0.012-6.198,0.08c-0.062,0.003-0.123,0.005-0.185,0.008c-0.932,0.044-1.863,0.102-2.792,0.178
							c-4.674,0.386-9.27,1.231-13.428,2.902c-0.661,0.267-1.343,0.543-2.034,0.839c-0.058,0.025-0.116,0.049-0.174,0.074
							c-6.207,2.644-13.199,6.471-14.639,13.008c-2.03,9.216,1.648,20.857,3.271,30.003c0.011,0.064,0.023,0.127,0.034,0.191
							c0.072,0.414,0.146,0.835,0.224,1.258c0.456,2.554,0.971,5.255,1.526,8.065c1.561,7.941,3.431,16.739,5.16,25.45
							c0.004,0.017,0.007,0.034,0.011,0.05c0.249,1.246,0.494,2.49,0.733,3.731c0.92,4.742,1.78,9.416,2.506,13.869
							c1.082,6.636,4.972,14.085,11.461,16.494c3.643,1.353,8.252,1.034,12.075,1.314c5.172,0.378,10.352,0.653,15.536,0.74
							c1.859,0.032,3.72,0.04,5.579,0.025c3.639-0.032,7.278-0.164,10.907-0.436c3.445-0.258,6.869-0.585,10.225-1.41
							c1.265-0.31,2.515-0.677,3.745-1.098c1.034-0.354,2.199-0.682,3.052-1.372c0.236-0.189,0.456-0.392,0.663-0.607
							c0.402-0.412,0.751-0.869,1.049-1.356c0.592-2.242,1.093-4.511,1.69-6.736c0.478-1.776,0.973-3.546,1.461-5.32
							c1.103-4.66,2.259-9.318,3.198-14.013c0.43-2.924,0.708-5.864,0.978-8.813c0.4-4.396,0.735-8.798,0.978-13.206
							C284.417,227.302,284.553,218.33,283.936,209.396z"/>
						<path style="fill:#FF8772;" d="M249.705,165.052c1.222,3.187,2.813,6.279,4.503,9.243c-0.965,0.585-1.929,1.169-2.894,1.754
							c-0.786,0.477-1.574,0.954-2.401,1.353c-3.031,1.462-6.567,1.811-9.817,0.966c-3.25-0.844-6.242-3.112-8.215-5.874
							c1.919-2.007,2.893-4.646,3.337-7.442H249.705z"/>
					</g>
					<g>
						<path style="fill:#2D201B;" d="M238.751,136.653c2.961,0.647,4.589,3.762,4.166,6.555c-0.423,2.793-2.425,5.236-4.686,7.217
							c-1.135-3.404-1.938-6.403-3.073-9.807c-0.426-1.279-0.718-2.953,0.497-3.767C236.339,136.394,237.95,136.478,238.751,136.653
							z"/>
						<path style="fill:#FF8772;" d="M252.745,152.578c-0.004,0.108-0.01,0.216-0.018,0.324c-0.004,0.054-0.008,0.11-0.013,0.164
							c-0.003,0.034-0.005,0.068-0.01,0.102c-0.01,0.104-0.021,0.205-0.035,0.308c-0.004,0.031-0.008,0.061-0.012,0.092
							c-0.021,0.149-0.045,0.298-0.073,0.445c-0.029,0.157-0.062,0.312-0.099,0.466c-0.013,0.055-0.026,0.109-0.04,0.163
							c-0.008,0.033-0.017,0.066-0.026,0.098c-0.034,0.131-0.072,0.26-0.112,0.389c-0.096,0.312-0.207,0.617-0.333,0.916
							c-0.029,0.072-0.061,0.144-0.093,0.215c-0.287,0.64-0.638,1.244-1.046,1.805c-0.089,0.121-0.18,0.24-0.272,0.356
							c-0.05,0.063-0.102,0.124-0.153,0.187c-0.086,0.102-0.173,0.201-0.263,0.3c-0.219,0.241-0.45,0.471-0.691,0.689
							c-0.113,0.102-0.228,0.2-0.345,0.297c-0.479,0.394-0.993,0.742-1.539,1.038c-0.411,0.225-0.84,0.419-1.284,0.582
							c-0.097,0.036-0.195,0.07-0.293,0.102c-0.07,0.023-0.14,0.046-0.21,0.066c-0.038,0.012-0.077,0.024-0.115,0.035
							c-0.036,0.01-0.072,0.021-0.107,0.03c-0.114,0.033-0.228,0.063-0.344,0.09c-0.686,0.164-1.398,0.253-2.129,0.26
							c-0.161,0.001-0.32-0.001-0.478-0.008c-1.785-0.073-3.453-0.64-4.871-1.572c-2.671-1.755-4.461-4.799-4.492-8.259
							l-0.021-2.348l-0.061-6.906l-0.019-2.16l-0.027-2.981c-0.001-0.164,0.001-0.327,0.008-0.489
							c0.003-0.08,0.007-0.161,0.012-0.24c0.003-0.064,0.008-0.126,0.014-0.189c0.004-0.063,0.011-0.127,0.018-0.19
							c0.001-0.015,0.002-0.031,0.005-0.045c0.003-0.039,0.008-0.078,0.013-0.117c0.005-0.047,0.01-0.092,0.017-0.139
							c0.003-0.028,0.007-0.056,0.011-0.084c0.009-0.068,0.02-0.136,0.031-0.203c0.009-0.057,0.019-0.114,0.03-0.171
							c0.005-0.034,0.011-0.067,0.018-0.101c0.024-0.132,0.052-0.263,0.083-0.393c0.016-0.073,0.035-0.148,0.054-0.22
							c0.017-0.068,0.035-0.134,0.054-0.201c0.018-0.065,0.038-0.131,0.057-0.196c0.001-0.002,0.001-0.004,0.002-0.006
							c0.02-0.065,0.041-0.13,0.061-0.195c0.022-0.065,0.044-0.131,0.066-0.196c0.023-0.064,0.046-0.13,0.07-0.194
							c0.048-0.131,0.1-0.26,0.154-0.388c0.01-0.025,0.021-0.049,0.032-0.073c0.045-0.105,0.092-0.21,0.141-0.314
							c0.011-0.024,0.023-0.048,0.035-0.072c0.051-0.107,0.104-0.213,0.159-0.318c0.009-0.017,0.017-0.033,0.026-0.05
							c1.637-3.08,4.828-5.198,8.494-5.232c4.124-0.038,7.696,2.571,9.148,6.26c0.437,1.109,0.682,2.316,0.693,3.578l0.129,14.395
							C252.754,152.247,252.751,152.412,252.745,152.578z"/>
						<path style="fill:#FF8772;" d="M227.826,146.508c0.019,2.112,1.716,3.808,3.79,3.789c2.074-0.019,3.741-1.746,3.722-3.858
							c-0.019-2.112-1.716-3.808-3.79-3.789C229.473,142.669,227.807,144.397,227.826,146.508z"/>
						<path style="fill:#2D1A14;" d="M251.931,134.108c-1.598,1.115-3.654,1.703-5.614,1.792c-3.344,0.154-6.647-0.766-9.992-0.919
							c-0.27-0.012-0.553-0.016-0.811,0.051c-0.137,0.035-0.267,0.089-0.384,0.171l-1.281,8.223l-0.243,1.561
							c-0.02-0.605-0.069-1.211-0.136-1.819c-0.086-0.773-0.201-1.549-0.324-2.322l-0.027-2.981
							c-0.001-0.164,0.001-0.327,0.008-0.489c0.003-0.08,0.007-0.161,0.012-0.24c0.003-0.064,0.008-0.126,0.014-0.189
							c0.004-0.063,0.011-0.127,0.018-0.19c0.001-0.015,0.002-0.031,0.005-0.045c0.003-0.039,0.008-0.078,0.013-0.117
							c0.005-0.047,0.01-0.092,0.017-0.139c0.003-0.028,0.007-0.056,0.011-0.084c0.009-0.068,0.02-0.136,0.031-0.203
							c0.009-0.057,0.019-0.114,0.03-0.171c0.005-0.034,0.011-0.067,0.018-0.101c0.024-0.132,0.052-0.263,0.083-0.393
							c0.016-0.073,0.035-0.148,0.054-0.22c0.017-0.068,0.035-0.134,0.054-0.201c0.018-0.065,0.038-0.131,0.057-0.196
							c0.001-0.002,0.001-0.004,0.002-0.006c0.02-0.065,0.041-0.13,0.061-0.195c0.022-0.065,0.044-0.131,0.066-0.196
							c0.023-0.064,0.046-0.13,0.07-0.194c0.048-0.131,0.1-0.26,0.154-0.388c0.01-0.025,0.021-0.049,0.032-0.073
							c0.045-0.105,0.092-0.21,0.141-0.314c0.011-0.024,0.023-0.048,0.035-0.072c0.051-0.107,0.104-0.213,0.159-0.318
							c0.009-0.017,0.017-0.033,0.026-0.05c1.637-3.08,4.828-5.198,8.494-5.232C246.908,127.81,250.48,130.418,251.931,134.108z"/>
						<path style="fill:#2D1A14;" d="M233.629,131.916c-1.078,0.539-1.77,1.663-2.072,2.83c-0.302,1.167-0.266,2.392-0.227,3.597
							c0.043,1.344,0.085,2.688,0.128,4.031c1.252,0.812,2.383,2.446,2.787,3.883c3.473-4.533,4.865-11.101,3.121-16.539"/>
					</g>
				</g>
			</g>
		</g>
		<path style="fill:#7F6BF4;" d="M213.861,306.595c2.266-8.128,10.693-12.88,18.821-10.614c0.528,0.147,1.057,0.328,1.555,0.525
			l63.943,25.493l0.995,0.397c4.403,1.755,7.028,6.076,6.867,10.556l-3.948,104.032c-0.16,4.204-3.697,7.482-7.901,7.323
			c-4-0.152-8.04-2.719-8.2-6.651l-7.394-92.854l-54.124-19.385C216.347,323.149,211.595,314.723,213.861,306.595z"/>
		<path style="fill:#7F6BF4;" d="M277.372,293.969l63.943,25.493l0.995,0.397c4.403,1.755,7.028,6.076,6.867,10.556l-3.949,104.032
			c-0.159,4.204-3.697,7.482-7.9,7.323c-4-0.152-7.163-3.39-7.323-7.323l-3.948-104.032l7.862,10.952l-66.308-18.488
			c-8.128-2.266-12.88-10.693-10.614-18.821c2.266-8.128,10.693-12.88,18.821-10.614
			C276.345,293.591,276.874,293.771,277.372,293.969z"/>
		<g>
			<path style="fill:#2D1A14;" d="M339.23,431.578c2.474-1.323,4.612-3.702,6.272-6.069c1.345,2.438,3.324,4.506,5.76,5.805
				c3.596,1.917,7.787,2.202,11.696,3.312c7.629,2.167,14.273,7.708,17.869,14.902h-51.626v-17.77
				C332.321,433.359,335.942,433.336,339.23,431.578z"/>
			<path style="fill:#2D1A14;" d="M339.23,431.578c2.471-1.321,4.606-3.695,6.265-6.059c1.349,2.434,3.334,4.497,5.767,5.794
				c3.596,1.917,7.787,2.202,11.696,3.312c7.629,2.167,14.273,7.708,17.869,14.902h-51.626v-17.77
				C332.321,433.359,335.942,433.336,339.23,431.578z"/>
			<path style="fill:#2D1A14;" d="M379.663,452.321h-50.26c-1.43,0-2.6-1.192-2.6-2.65l0,0c0-1.458,1.17-2.651,2.6-2.651h50.26
				c1.43,0,2.6,1.193,2.6,2.651l0,0C382.262,451.128,381.093,452.321,379.663,452.321z"/>
			
				<path style="fill:none;stroke:#B7A091;stroke-width:1.0511;stroke-linecap:round;stroke-linejoin:round;stroke-miterlimit:10;" d="
				M347.826,446.647c0,0-2.803-11.212-18.921-10.161"/>
		</g>
		<g>
			<path style="fill:#2D1A14;" d="M296.095,434.961c2.474-1.323,4.612-3.702,6.272-6.069c1.344,2.438,3.324,4.506,5.76,5.805
				c3.596,1.917,7.787,2.202,11.696,3.313c7.629,2.167,14.273,7.708,17.869,14.902h-51.626v-17.77
				C289.186,436.742,292.807,436.719,296.095,434.961z"/>
			<path style="fill:#2D1A14;" d="M296.095,434.961c2.471-1.321,4.606-3.695,6.265-6.059c1.349,2.434,3.334,4.497,5.767,5.794
				c3.596,1.917,7.787,2.202,11.696,3.313c7.629,2.167,14.273,7.708,17.869,14.902h-51.626v-17.77
				C289.186,436.742,292.807,436.719,296.095,434.961z"/>
			<path style="fill:#2D1A14;" d="M336.527,455.704h-50.26c-1.43,0-2.6-1.192-2.6-2.65l0,0c0-1.458,1.17-2.651,2.6-2.651h50.26
				c1.43,0,2.6,1.193,2.6,2.651l0,0C339.127,454.511,337.957,455.704,336.527,455.704z"/>
			
				<path style="fill:none;stroke:#B7A091;stroke-width:1.0511;stroke-linecap:round;stroke-linejoin:round;stroke-miterlimit:10;" d="
				M304.691,450.03c0,0-2.803-11.212-18.921-10.161"/>
		</g>
		<path style="fill:#FFF8F3;" d="M245.217,151.781c2.442,0,4.421-2.7,4.421-6.031h-8.842
			C240.797,149.081,242.776,151.781,245.217,151.781z"/>
		<polygon style="fill:#F4D0B8;" points="230.881,172.495 247.897,218.578 257.289,174.093 		"/>
		<path style="fill:#F4D0B8;" d="M253.771,176.567h-18.91c-2.372,0-4.313-1.941-4.313-4.313l0,0c0-2.372,1.941-4.313,4.313-4.313
			h18.91c2.372,0,4.313,1.941,4.313,4.313l0,0C258.084,174.626,256.143,176.567,253.771,176.567z"/>
		<path style="fill:#F4D0B8;" d="M218.231,203.418l-64.196,64.555l-8.811-20.273l84.016,1.585
			c6.711,0.127,12.049,5.669,11.922,12.38c-0.127,6.711-5.669,12.049-12.38,11.922l-84.017-1.585
			c-6.706-0.126-12.039-5.665-11.913-12.37c0.053-2.813,1.059-5.385,2.704-7.414l0.398-0.49l57.337-70.717
			c5.838-7.201,16.408-8.305,23.609-2.467c7.201,5.838,8.305,16.408,2.467,23.609C219.011,202.593,218.62,203.024,218.231,203.418z"
			/>
		<path style="fill:#F4D0B8;" d="M256.442,252.154l24.471-0.535c-1.651,1.907-3.766,3.395-5.827,5.257
			c-1.563,1.412,0.436,3.529,2.108,2.732c4.594-2.188,8.79-5.162,13.502-7.109c0.557-0.23,3.441,0.422,3.597-0.047l10.804-1.362
			l-39.149-45.596c-0.336-0.394-0.673-0.825-0.981-1.264c-5.041-7.201-4.087-17.771,2.13-23.609
			c6.217-5.838,15.344-4.734,20.384,2.467l49.505,70.717l0.343,0.49c1.42,2.028,2.288,4.6,2.334,7.413
			c0.109,6.706-4.495,12.244-10.285,12.371l-72.54,1.585c-5.794,0.127-10.58-5.211-10.689-11.922
			C246.039,257.031,250.648,251.488,256.442,252.154z"/>
		<path style="fill:#FF8772;" d="M293.245,274.722c6.23-0.487,12.942-2.131,16.45-5.488c0.971-0.929,1.514-2.321,1.836-3.597
			c0.445-1.764,0.469-3.648-0.004-5.409c-0.572-2.13-1.883-3.962-3.631-5.293c-2.584-1.967-5.862-2.846-9.034-3.258
			c-1.336-0.174-2.683-0.263-4.029-0.294c-2.023-0.046-3.775,0.225-5.652,0.976c-1.233,0.494-2.467,0.988-3.7,1.482
			c-3.039,1.217-6.078,2.434-9.117,3.651c-1.357,0.543-2.714,1.087-4.07,1.63c-2.392,0.326-2.881-2.054-2.826,4.657
			c0.055,6.711,2.461,12.049,5.374,11.922l18.426-0.801C293.26,274.841,293.186,274.727,293.245,274.722z"/>
		<path style="fill:#FF8772;" d="M225.648,257.382l-20.985-4.24c-12.286,1.305-19.757,10.724-23.12,19.554l36.84,0.891
			c5.234,0.127,3.694-8.837,9.655-11.922C235.935,257.579,240.427,260.722,225.648,257.382z"/>
		<path style="fill:#2D1A14;" d="M247.67,134.971c3.443,0.296,6.939-2.016,8.015-5.299c0.367-1.118,0.473-2.305,0.51-3.481
			c0.036-1.183,0.002-2.383-0.325-3.521c-0.546-1.898-1.878-3.493-3.44-4.701c-1.562-1.208-3.358-2.071-5.139-2.925
			c0.303,1.124-0.579,2.793-1.149,3.807c-1.274,2.266-4.16,2.986-6.742,3.291c-2.582,0.305-5.414,0.514-7.297,2.307
			c-1.494,1.422-2.066,3.702-1.532,5.695c0.534,1.993,2.109,3.648,4.031,4.396"/>
		
			<line style="fill:none;stroke:#472A1C;stroke-width:1.3047;stroke-linecap:round;stroke-linejoin:round;stroke-miterlimit:10;" x1="256.996" y1="304.057" x2="298.18" y2="321.999"/>
		<g>
			<g>
				<path style="fill:#FF8772;" d="M250.132,262.753c-0.175,2.349-12.023,2.164-12.023,2.164s17.972,14.776,16.176,17.272
					c-0.072,0.101-0.17,0.17-0.279,0.225c-0.781-0.151-1.564-0.287-2.348-0.403c-4.46-2.025-12.634-9.282-12.634-9.282
					s2.631,2.642,5.347,5.805c-2.678-0.933-5.478-1.425-8.333-1.615c-0.338-0.414-0.529-0.655-0.529-0.655s0.18,0.239,0.482,0.652
					c-4.152-0.273-8.419,0.081-12.593,0.605c-4.501-5.794-10.884-14.715-10.884-14.715l7.079-6.121
					C219.594,256.685,250.427,258.79,250.132,262.753z"/>
			</g>
			<path style="fill:#FF8772;" d="M237.435,281.088c-0.117,1.676-1.732,2.977-3.436,3.229c-1.704,0.252-3.434-0.34-4.952-1.151
				c-3.394-1.815-6.118-4.802-7.567-8.299c-0.981-2.367-1.248-5.397,0.623-7.159c1.581-1.49,4.072-1.502,6.262-1.207
				c5.217,0.702,15.061,3.227,17.374,8.61C247.725,279.733,240.667,286.305,237.435,281.088z"/>
		</g>
		<g>
			<g>
				<path style="fill:#FF8772;" d="M252.042,264.054c0.175,2.349,12.023,2.164,12.023,2.164s-17.972,14.776-16.176,17.272
					c0.072,0.101,0.17,0.17,0.279,0.225c0.781-0.151,1.563-0.287,2.348-0.403c4.46-2.025,12.634-9.282,12.634-9.282
					s-2.631,2.642-5.347,5.805c2.678-0.933,5.478-1.425,8.333-1.615c0.338-0.414,0.529-0.655,0.529-0.655s-0.181,0.239-0.482,0.652
					c4.152-0.273,8.419,0.081,12.593,0.605c4.501-5.794,10.884-14.716,10.884-14.716l-9.139-6.905
					C280.52,257.201,251.747,260.091,252.042,264.054z"/>
			</g>
			<path style="fill:#FF8772;" d="M264.74,282.389c0.117,1.676,1.732,2.977,3.436,3.229c1.704,0.252,3.434-0.34,4.951-1.151
				c3.394-1.815,6.118-4.802,7.567-8.299c0.981-2.367,1.248-5.397-0.623-7.159c-1.581-1.49-4.072-1.502-6.262-1.207
				c-5.217,0.702-15.061,3.227-17.374,8.61C254.449,281.034,261.508,287.606,264.74,282.389z"/>
		</g>
		
			<path style="fill:none;stroke:#2D1A14;stroke-width:0.8616;stroke-linecap:round;stroke-linejoin:round;stroke-miterlimit:10;" d="
			M255.438,175.669c0.045,1.647-1.144,3.19-2.682,3.78c-1.538,0.59-3.329,0.305-4.747-0.533c-0.738-0.436-1.418-1.053-1.69-1.866
			c-0.194,1.059-1.142,2.277-2.113,2.743c-0.971,0.466-2.099,0.535-3.16,0.35c-2.879-0.502-5.304-2.976-5.749-5.864"/>
		<path style="fill:#2D1A14;" d="M250.502,179.915c-0.191,1.559-0.975,3.039-2.159,4.071l8.654,24.974l-4.406,7.834l-7.834-6.365
			l0.979-26.439c0,0-2.938-0.652-3.427-3.753c0,0,3.427-0.163,3.917-3.101c0,0,1.958,2.448,3.917,2.448L250.502,179.915z"/>
	</g>
	<g>
		<circle style="fill:#2D1A14;" cx="487.755" cy="150.674" r="22.827"/>
		<g>
			<path style="fill:#2D1A14;" d="M462.115,161.052c0,0,18.878,22.495,39.954,2.806l-19.977-21.121
				C482.092,142.737,481.79,164.778,462.115,161.052z"/>
			<g>
				<g>
					<path style="fill:#2D1A14;" d="M491.121,147.003c-0.142,0.039-0.261,0.1-0.329,0.206
						C490.896,147.13,491.007,147.064,491.121,147.003z"/>
				</g>
				
					<polyline style="fill:none;stroke:#211D1D;stroke-width:1.1022;stroke-linecap:round;stroke-linejoin:round;stroke-miterlimit:10;" points="
					403.042,452.368 419.386,348.756 480.275,348.447 498.684,453.548 				"/>
				<path style="fill:#B82B12;" d="M475.405,343.5H400.27c-6.223,0-11.315-5.867-11.315-13.037l0,0
					c0-7.171,5.092-13.037,11.315-13.037h75.135c6.224,0,11.316,5.867,11.316,13.037l0,0
					C486.721,337.633,481.629,343.5,475.405,343.5z"/>
				<path style="fill:#A83500;" d="M463.191,212.386l-52.992,22.664l-1.626,0.695c-4.158,1.778-8.918,0.142-11.154-3.653
					l-41.614-70.423c-0.828-1.401-0.363-3.208,1.038-4.036c1.254-0.741,2.834-0.445,3.745,0.629l52.952,62.347l-12.779-2.957
					l47.892-32.065c7.026-4.704,16.535-2.822,21.239,4.204c4.704,7.026,2.822,16.535-4.204,21.239
					C464.909,211.553,464.021,212.024,463.191,212.386z"/>
				<path style="fill:#FF9E00;" d="M469.892,189.792c-4.704-7.026-14.213-8.908-21.239-4.204l-41.347,27.682l-28.291-33.311
					c-1.8,3.52-4.089,6.694-6.745,9.573l25.149,42.56c2.236,3.794,6.996,5.431,11.154,3.653l1.626-0.695l52.992-22.664
					c0.83-0.361,1.718-0.833,2.497-1.355C472.714,206.327,474.596,196.818,469.892,189.792z"/>
				<g>
					<path style="fill:#2D1A14;" d="M352.871,455.984h42.082l5.221-0.487l7.801,0.838l0.517-18.865l0.87-11.936l-14.471,0.747
						c0.443,4.236-1.38,8.741-4.556,11.936c-0.249,0.249-0.506,0.494-0.771,0.728c-0.265,0.233-0.538,0.455-0.819,0.672
						c-0.704,0.538-1.451,1.013-2.238,1.42c-0.348,0.178-0.696,0.344-1.052,0.498c-0.119,0.051-0.237,0.099-0.356,0.146
						c-0.119,0.051-0.237,0.099-0.356,0.142c-0.221,0.087-0.443,0.166-0.664,0.245c-0.261,0.091-0.522,0.178-0.787,0.257
						c-0.103,0.036-0.21,0.067-0.316,0.095c-0.138,0.048-0.281,0.087-0.423,0.123c-0.115,0.036-0.229,0.067-0.344,0.095
						c-0.134,0.04-0.269,0.075-0.408,0.111c-0.122,0.032-0.241,0.063-0.364,0.091c-0.455,0.115-0.91,0.221-1.364,0.324
						c-0.075,0.02-0.15,0.036-0.225,0.052c-1.732,0.388-3.477,0.732-5.177,1.222C366.948,446.663,356.858,449.055,352.871,455.984z"
						/>
				</g>
				<g>
					<path style="fill:#2D1A14;" d="M350.47,346.566c-2.857,3.683-8.412,5.345-13.167,3.94c-3.223-0.953-5.874-3.088-8.826-4.636
						c-5.76-3.021-12.846-3.729-19.056-1.905l30.68,28.156l19.25-17.892L350.47,346.566z"/>
				</g>
				<path style="fill:#AE4E3E;" d="M471.839,244.087c-2.209,24.865-6.324,49.592-12.306,73.95h77.695
					c3.496-12.821,0.39-27.896-7.133-39.235c-4.158-6.267-9.768-11.666-14.096-17.84c-4.328-6.174-7.383-13.607-5.581-20.721
					L471.839,244.087z"/>
				<path style="fill:#2D1A14;" d="M530.096,278.802c-4.158-6.267-9.768-11.666-14.096-17.84c-0.258-0.368-0.51-0.74-0.758-1.116
					c-4.361,0.047-8.723,0.057-13.085,0.019c-1.884-0.016-3.768-0.041-5.652-0.076h-26.317c-2.376,19.57-5.933,39.024-10.654,58.248
					h77.695C540.725,305.216,537.619,290.142,530.096,278.802z"/>
				<path style="fill:#FF9E00;" d="M453.287,184.187h67.506c3.364,5.887,4.492,12.949,2.444,20.413
					c-2.651,9.658-7.25,18.47-8.126,28.567c-0.577,6.643,0.454,13.438-0.618,20.058c-2.264,13.974-11.767,18.289-25.32,18.768
					c-11.602,0.41-22.154-1.656-28.403-12.556c-6.036-10.528-4.048-22.649-7.081-33.97c-2.421-9.036-4.63-18.013-4.204-27.578
					C449.718,192.609,451.083,188.05,453.287,184.187z"/>
				<path style="fill:#A83500;" d="M503.107,155.721c-0.142,2.254-2.085,3.966-4.339,3.824c-2.254-0.142-3.966-2.085-3.824-4.339
					c0.142-2.254,2.085-3.966,4.339-3.824C501.537,151.524,503.249,153.467,503.107,155.721z"/>
				<g>
					<path style="fill:#2D1A14;" d="M413.066,432.05c-9.781-0.695-19.49-4.138-29.296-4.308l18.355-111.296
						c1.188-7.025,7.272-12.168,14.397-12.168h103.623c8.064,0,14.601,6.537,14.601,14.601c0,8.064-6.537,14.601-14.601,14.601
						h-91.283L413.066,432.05z"/>
				</g>
				<g>
					<path style="fill:#2D1A14;" d="M341.385,337.104l79.04-57.618c3.882-2.83,8.953-3.742,13.658-2.458l93.188,25.434
						c8.177,2.232,12.897,10.323,10.542,18.072c-2.355,7.749-10.894,12.224-19.07,9.99l-85.704-23.391l-71.814,52.35
						C354.439,352.179,348.173,344.418,341.385,337.104z"/>
				</g>
				<path style="fill:#A83500;" d="M537.302,196.714l10.619,56.495l0.317,1.687c0.875,4.655-2.038,9.153-6.54,10.355l-74.903,19.798
					c-1.99,0.526-4.03-0.661-4.556-2.651c-0.474-1.795,0.446-3.631,2.092-4.359l70.813-31.433l-6.223,12.042l-20.887-53.555
					c-3.068-7.866,0.822-16.73,8.688-19.798c7.866-3.068,16.73,0.822,19.798,8.688C536.861,194.857,537.129,195.826,537.302,196.714
					z"/>
				<path style="fill:#FF9E00;" d="M548.239,254.896l-0.317-1.687l-10.619-56.495c-0.173-0.888-0.441-1.857-0.782-2.731
					c-3.068-7.866-11.932-11.756-19.798-8.688c-7.866,3.068-11.756,11.932-8.688,19.798l17.802,45.645l-23.821,10.574
					c2.926,3.869,5.042,8.132,6.402,12.737l33.282-8.797C546.201,264.05,549.114,259.551,548.239,254.896z"/>
				<g>
					<g>
						<path style="fill:#A83500;" d="M448.045,278.191c-0.122,1.692,8.362,2.804,8.362,2.804s-14.396,8.64-13.376,10.608
							c0.041,0.079,0.104,0.139,0.176,0.19c0.574-0.026,1.147-0.04,1.72-0.041c3.4-0.975,10.004-5.287,10.004-5.287
							s-2.158,1.606-4.431,3.574c2.012-0.384,4.064-0.44,6.124-0.276c0.285-0.259,0.447-0.411,0.447-0.411s-0.154,0.152-0.413,0.414
							c2.995,0.242,6.007,0.942,8.934,1.753c3.826-3.655,9.326-9.342,9.326-9.342l-8.541-5.209
							C466.376,276.968,448.252,275.336,448.045,278.191z"/>
					</g>
					<path style="fill:#A83500;" d="M455.187,292.587c-0.093,1.206,0.924,2.303,2.115,2.661c1.191,0.358,2.49,0.118,3.659-0.3
						c2.616-0.937,4.877-2.78,6.28-5.119c0.95-1.583,1.46-3.714,0.308-5.166c-0.973-1.228-2.752-1.497-4.347-1.517
						c-3.802-0.048-11.101,0.718-13.32,4.311C447.978,290.541,452.329,295.964,455.187,292.587z"/>
				</g>
				<g>
					<g>
						<path style="fill:#A83500;" d="M365.765,146.246c-1.566-0.164-2.854,7.651-2.854,7.651s-7.581-13.579-9.437-12.695
							c-0.075,0.036-0.132,0.092-0.181,0.157c0.007,0.532,0.003,1.063-0.014,1.593c0.801,3.175,4.602,9.414,4.602,9.414
							s-1.425-2.045-3.182-4.207c0.295,1.872,0.285,3.772,0.071,5.673c0.232,0.271,0.368,0.426,0.368,0.426
							s-0.136-0.147-0.371-0.395c-0.315,2.764-1.055,5.528-1.896,8.211c3.276,3.65,8.384,8.91,8.384,8.91l4.868-3.928
							C366.124,167.055,368.408,146.524,365.765,146.246z"/>
					</g>
					<path style="fill:#A83500;" d="M352.195,152.417c-1.116-0.123-2.165,0.785-2.533,1.876c-0.369,1.091-0.185,2.299,0.168,3.394
						c0.79,2.448,2.431,4.596,4.559,5.965c1.44,0.927,3.401,1.463,4.783,0.442c1.168-0.863,1.472-2.5,1.539-3.975
						c0.159-3.515-0.331-10.291-3.596-12.452C354.31,145.809,349.147,149.67,352.195,152.417z"/>
				</g>
				<path style="fill:none;stroke:#F5F5F3;stroke-width:0.9846;stroke-miterlimit:10;" d="M452.936,298.173
					c-5.587-1.766-11.494-3.243-17.402-4.72c-0.492,0-1.477,0.492-2.461,0.985c-8.369,6.4-16.245,11.815-24.614,17.722
					c-11.815,8.861-22.645,16.738-34.46,25.599c-3.938,2.954-7.877,5.415-11.815,7.876"/>
				<path style="fill:none;stroke:#F5F5F3;stroke-width:0.9846;stroke-miterlimit:10;" d="M516.144,314.824
					c-10.475-2.605-20.754-6.052-31.337-8.169"/>
				<path style="fill:#B82B12;" d="M468.24,343.968c-5.371-22.76,7.411-47.028,26.467-60.583
					c19.056-13.555,43.146-18.056,66.515-18.929l-24.617,79.465L468.24,343.968z"/>
				<path style="fill:#914B29;" d="M500.349,285.147H452.02H221.516c-3.335,0-6.063-2.18-6.063-4.843l0,0
					c0-2.664,2.728-4.843,6.063-4.843h278.833c3.335,0,6.063,2.18,6.063,4.843l0,0C506.413,282.967,503.684,285.147,500.349,285.147
					z"/>
				<path style="fill:#A83500;" d="M479.409,180.536c3.266-3.973,4.961-9.727,5.061-15.059l10.596-5.851
					c-2.441,9.191,1.162,20.618,7.003,24.059c-0.488,0.638-1.034,1.228-1.625,1.776c-3.649,3.392-9.034,5.043-13.782,4.911
					c-4.497-0.118-9.13-1.727-12.471-4.911c-0.392-0.376-0.767-0.774-1.123-1.191C475.453,183.759,477.645,182.682,479.409,180.536z
					"/>
				<path style="fill:#2D1A14;" d="M490.439,164.501c-0.715,3.139-3.484,5.533-6.502,5.86c0.385-1.956,0.565-3.944,0.53-5.86
					H490.439z"/>
				<path style="fill:#A83500;" d="M481.925,166.466c0.956,0.383,1.99,0.625,3.068,0.694c0.767,0.047,1.521,0.009,2.253-0.116
					c0.737-0.121,1.447-0.323,2.124-0.595c3.468-1.409,6.027-4.709,6.277-8.677l0.34-5.364l0.577-9.168
					c0.172-2.757-0.797-5.333-2.499-7.264c-1.702-1.93-4.14-3.218-6.893-3.391c-4.847-0.306-9.146,2.925-10.34,7.462
					c-0.168,0.616-0.276,1.267-0.315,1.93l-0.763,12.055l-0.155,2.473C475.32,160.939,478,164.902,481.925,166.466z"/>
				
					<line style="fill:none;stroke:#2D1A14;stroke-width:0.8616;stroke-linecap:round;stroke-linejoin:round;stroke-miterlimit:10;" x1="508.034" y1="205.093" x2="515.524" y2="224.697"/>
				
					<line style="fill:none;stroke:#2D1A14;stroke-width:0.8616;stroke-linecap:round;stroke-linejoin:round;stroke-miterlimit:10;" x1="449.483" y1="197.888" x2="452.399" y2="217.538"/>
				
					<polyline style="fill:none;stroke:#211D1D;stroke-width:1.0919;stroke-linecap:round;stroke-linejoin:round;stroke-miterlimit:10;" points="
					457.599,454.878 473.971,349.532 534.86,349.244 553.242,453.712 				"/>
				<path style="fill:#2D1A14;" d="M424.771,349.819h117.929c1.533,0,2.787-1.254,2.787-2.787v-0.789
					c0-1.533-1.254-2.787-2.787-2.787H424.771c-1.533,0-2.787,1.254-2.787,2.787v0.789
					C421.985,348.565,423.239,349.819,424.771,349.819z"/>
				<path style="fill:#FCEFEB;" d="M487.757,155.23v1.005c0,2.291-1.874,4.165-4.165,4.165c-2.291,0-4.165-1.874-4.165-4.165v-1.005
					H487.757z"/>
				<path style="fill:#2D1A14;" d="M475.756,154.033c1.555-0.069,3.085-0.638,4.274-1.633c1.633-1.361,2.301-3.192,2.223-5.286
					c0.25,3.05,2.356,5.894,5.221,6.988c2.848,1.09,6.29,0.388,8.513-1.693l0.577-9.168c0.172-2.757-0.797-5.333-2.499-7.264
					c-1.702-1.93-4.14-3.218-6.893-3.391c-4.847-0.306-9.146,2.925-10.34,7.462c-0.168,0.616-0.276,1.267-0.315,1.93
					L475.756,154.033z"/>
			</g>
		</g>
	</g>
	<path style="fill:none;stroke:#2D1A14;stroke-width:0.8616;stroke-linecap:round;stroke-linejoin:round;stroke-miterlimit:10;" d="
		M358.51,151.209c0,0,3.016,6.032,0.574,9.047"/>
	<path style="fill:none;stroke:#2D1A14;stroke-width:2.1156;stroke-linecap:round;stroke-linejoin:round;stroke-miterlimit:10;" d="
		M91.383,455.191c183.78,0.003,367.036,0.003,550.995,0"/>
	<g>
		<path style="fill:#7F6BF4;" d="M349.928,274.846l12.196-41.816c1.292-4.43-1.976-8.876-6.524-8.876h-66.338
			c-2.752,0-5.234,1.685-6.287,4.268l-17.895,45.723"/>
		<path style="fill:#2D1A14;" d="M233.926,276.02l114.748,0c1.031,0,1.874-0.844,1.874-1.874v0c0-1.031-0.844-1.874-1.874-1.874
			H233.926c-1.031,0-1.874,0.843-1.874,1.874l0,0C232.051,275.177,232.895,276.02,233.926,276.02z"/>
		
			<path style="opacity:0.73;fill:none;stroke:#FFFFFF;stroke-width:0.4998;stroke-linecap:round;stroke-linejoin:round;stroke-miterlimit:10;" d="
			M326.911,253.063c-1.514,6.001-5.643,10.134-9.223,9.231c-3.58-0.903-5.254-6.5-3.74-12.502c1.514-6.001,5.643-10.134,9.223-9.231
			C326.751,241.464,328.425,247.061,326.911,253.063z"/>
	</g>
	<g>
		<path style="fill:#2D1A14;" d="M385.14,276.186l-12.196-41.816c-1.292-4.43,1.976-8.876,6.524-8.876h66.337
			c2.753,0,5.234,1.685,6.287,4.268l17.895,45.723"/>
		<path style="fill:#2D1A14;" d="M501.142,277.361l-114.748,0c-1.031,0-1.874-0.844-1.874-1.874v0c0-1.031,0.843-1.874,1.874-1.874
			h114.748c1.031,0,1.874,0.843,1.874,1.874v0C503.016,276.517,502.173,277.361,501.142,277.361z"/>
		
			<path style="opacity:0.73;fill:none;stroke:#FFFFFF;stroke-width:0.4998;stroke-linecap:round;stroke-linejoin:round;stroke-miterlimit:10;" d="
			M408.156,254.403c1.514,6.001,5.643,10.134,9.223,9.231c3.58-0.903,5.255-6.5,3.74-12.502c-1.514-6.001-5.643-10.134-9.223-9.231
			C408.317,242.805,406.642,248.402,408.156,254.403z"/>
	</g>
	<g>
		<path style="fill:#2D1A14;" d="M339.382,165.717h-11.614c-4.432,0-8.025-3.593-8.025-8.025v-23.665h28.376v22.953
			C348.119,161.806,344.207,165.717,339.382,165.717z"/>
		
			<path style="fill:none;stroke:#2D1A14;stroke-width:1.8446;stroke-linecap:round;stroke-linejoin:round;stroke-miterlimit:10;" d="
			M354.393,157.481h-5.144c-4.749,0-8.634-3.885-8.634-8.634l0,0c0-4.749,3.885-8.634,8.634-8.634h5.144
			c4.749,0,8.634,3.885,8.634,8.634l0,0C363.027,153.595,359.142,157.481,354.393,157.481z"/>
	</g>
	<g>
		<path style="fill:#2D1A14;" d="M247.371,275.24h11.614c4.432,0,8.025-3.593,8.025-8.025v-23.665h-28.376v22.953
			C238.634,271.329,242.546,275.24,247.371,275.24z"/>
		
			<path style="fill:none;stroke:#2D1A14;stroke-width:1.8446;stroke-linecap:round;stroke-linejoin:round;stroke-miterlimit:10;" d="
			M232.36,267.004h5.144c4.749,0,8.634-3.885,8.634-8.634l0,0c0-4.749-3.885-8.634-8.634-8.634h-5.144
			c-4.749,0-8.634,3.885-8.634,8.634l0,0C223.726,263.118,227.611,267.004,232.36,267.004z"/>
	</g>
	<path style="fill:#E5E3FC;" d="M97.629,345.078c0,3.646-2.956,6.602-6.602,6.602c-3.646,0-6.602-2.956-6.602-6.602
		c0-3.646,2.956-6.602,6.602-6.602C94.673,338.476,97.629,341.432,97.629,345.078z"/>
	<path style="fill:#E5E3FC;" d="M75.593,379.339c0,2.198-1.782,3.979-3.98,3.979c-2.198,0-3.979-1.782-3.979-3.979
		c0-2.198,1.782-3.98,3.979-3.98C73.811,375.359,75.593,377.141,75.593,379.339z"/>
	<path style="fill:#E5E3FC;" d="M181.543,34.824c0,2.801-2.271,5.071-5.071,5.071c-2.801,0-5.071-2.27-5.071-5.071
		c0-2.801,2.27-5.071,5.071-5.071C179.273,29.752,181.543,32.023,181.543,34.824z"/>
	<path style="fill:#E5E3FC;" d="M462.115,84.411c0,3.086-2.501,5.587-5.587,5.587c-3.085,0-5.587-2.501-5.587-5.587
		c0-3.085,2.501-5.587,5.587-5.587C459.614,78.824,462.115,81.325,462.115,84.411z"/>
	
		<ellipse transform="matrix(0.1808 -0.9835 0.9835 0.1808 302.5674 568.4243)" style="fill:#E5E3FC;" cx="492.509" cy="102.581" rx="10.417" ry="10.417"/>
	<circle style="fill:#E5E3FC;" cx="430.307" cy="157.505" r="2.895"/>
	<path style="fill:#E5E3FC;" d="M677.135,241.174c0,2.508-2.033,4.541-4.541,4.541c-2.508,0-4.541-2.033-4.541-4.541
		c0-2.508,2.033-4.541,4.541-4.541C675.102,236.634,677.135,238.667,677.135,241.174z"/>
	
		<ellipse transform="matrix(0.7071 -0.7071 0.7071 0.7071 24.2307 580.7595)" style="fill:#E5E3FC;" cx="713.154" cy="261.131" rx="7.388" ry="7.388"/>
	<path style="fill:#E5E3FC;" d="M699.947,227.828c0,2.008-1.628,3.635-3.635,3.635c-2.008,0-3.635-1.628-3.635-3.635
		c0-2.008,1.628-3.635,3.635-3.635C698.319,224.193,699.947,225.82,699.947,227.828z"/>
	<path style="fill:#E5E3FC;" d="M720.286,342.554c0,1.969-1.597,3.566-3.566,3.566c-1.969,0-3.566-1.597-3.566-3.566
		c0-1.969,1.597-3.566,3.566-3.566C718.69,338.988,720.286,340.584,720.286,342.554z"/>
	
		<ellipse transform="matrix(0.9231 -0.3845 0.3845 0.9231 -123.5833 203.771)" style="fill:#E5E3FC;" cx="447.766" cy="410.923" rx="7.864" ry="7.864"/>
	<circle style="fill:#E5E3FC;" cx="368.962" cy="394.226" r="11.536"/>
	<circle style="fill:#E5E3FC;" cx="376.034" cy="366.481" r="3.764"/>
</g>
</svg>
